<?xml version="1.0" encoding="UTF-8"?>
<svg width="208px" height="114px" viewBox="0 0 208 114" version="1.1" xmlns="http://www.w3.org/2000/svg" xmlns:xlink="http://www.w3.org/1999/xlink">
    <!-- Generator: Sketch 52.6 (67491) - http://www.bohemiancoding.com/sketch -->
    <title>Combined Shape Copy 2</title>
    <desc>Created with Sketch.</desc>
    <g id="Page-1" stroke="none" stroke-width="1" fill="none" fill-rule="evenodd" opacity="0.887834821">
        <g id="Weather" transform="translate(-713.000000, -260.000000)" fill="#FFFFFF">
            <g id="Group" transform="translate(711.000000, 255.000000)">
                <path d="M52.8305177,34.4438165 C64.2288991,17.4491015 85.6640411,6 110.228171,6 C129.301523,6 146.488382,12.9027586 158.554935,23.9446094 C161.256973,21.5013271 164.848406,20.0118538 168.790027,20.0118538 C176.757964,20.0118538 183.294892,26.0984561 183.946606,33.8467342 C198.683578,35.8171876 209.9375,46.3932019 209.9375,59.1443165 C209.9375,73.2976578 196.072318,84.7712078 178.96875,84.7712078 C176.352766,84.7712078 173.812539,84.5028003 171.386093,83.9974499 C161.489214,104.539168 137.834733,119 110.228171,119 C86.4236129,119 65.5575256,108.248009 53.916486,92.1166327 C49.4380625,93.8233626 44.4840042,94.7712078 39.2733327,94.7712078 C19.2401242,94.7712078 3,80.7607924 3,63.4780692 C3,46.1953461 19.2401242,32.1849307 39.2733327,32.1849307 C44.0663389,32.1849307 48.6422214,32.9869152 52.8305137,34.4438224 Z" id="Combined-Shape-Copy-2" transform="translate(106.468750, 62.500000) rotate(-177.000000) translate(-106.468750, -62.500000) "></path>
            </g>
        </g>
    </g>
</svg>